<svg width="894" height="968" viewBox="0 0 894 968" fill="none" xmlns="http://www.w3.org/2000/svg">
<path d="M831.794 315.175C852.865 315.543 872.634 309.008 890.097 303.237C891.371 302.798 892.298 301.783 892.482 300.479C892.717 299.158 892.173 297.772 891.108 296.717C875.534 281.294 854.458 270.821 833.297 268.003C812.136 265.185 791.004 270.011 775.27 281.268C774.824 281.572 774.482 281.963 774.254 282.404C774 282.492 773.758 282.605 773.528 282.745C772.485 283.407 771.916 284.48 771.91 285.662C771.889 286.577 772.201 287.559 772.87 288.418C785.294 304.532 807.875 314.788 831.781 315.209L831.794 315.175Z" fill="#ACD27A"/>
<path d="M240.201 59.9089C220.114 76.2706 205.989 97.9504 193.512 117.099C192.613 118.513 192.437 120.181 193.158 121.526C193.843 122.928 195.306 123.772 197.033 123.898C222.274 125.74 249.298 118.669 271.151 104.489C293.003 90.3096 309.584 69.1216 316.67 46.2968C316.881 45.6638 316.935 45.0332 316.847 44.447C317.026 44.1642 317.176 43.8679 317.296 43.5582C317.824 42.1224 317.623 40.6844 316.818 39.5921C316.21 38.7345 315.243 38.0786 314.024 37.8185C291.274 32.8432 262.981 41.3067 240.189 59.8671L240.201 59.9089Z" fill="#ACD27A"/>
<path d="M46.9484 938.691C57.2765 927.732 63.7635 914.163 69.4942 902.177C69.9043 901.294 69.8785 900.32 69.3604 899.599C68.8587 898.843 67.9514 898.469 66.9467 898.528C52.2612 899.39 37.2281 905.525 25.7162 915.361C14.2044 925.198 6.26486 938.671 3.92088 952.364C3.84805 952.744 3.86456 953.112 3.96039 953.443C3.87838 953.62 3.81461 953.802 3.76907 953.989C3.5742 954.857 3.79962 955.67 4.34684 956.238C4.76272 956.686 5.37004 956.991 6.09216 957.047C19.581 958.18 35.2394 951.147 46.9584 938.715L46.9484 938.691Z" fill="#ACD27A"/>
<path d="M498.275 832.235C499.835 844.878 494.867 853.345 490.48 860.824C490.144 861.361 489.248 861.409 488.04 860.874C486.818 860.362 485.491 859.356 484.444 858.206C469.128 841.387 458.123 823.757 454.267 809.852C450.412 795.948 453.704 785.832 463.318 782.081C463.577 781.967 463.923 781.957 464.322 782.041C464.389 781.933 464.482 781.846 464.599 781.779C465.157 781.489 466.127 781.682 467.232 782.261C468.086 782.701 469.022 783.369 469.863 784.189C485.643 799.485 496.533 817.899 498.306 832.244L498.275 832.235Z" fill="#9FBE37"/>
<path d="M718.199 584.977C712.632 580.593 705.448 577.956 699.103 575.625C698.634 575.459 698.096 575.487 697.674 575.729C697.234 575.965 696.986 576.373 696.972 576.817C696.769 583.305 699.457 589.855 704.35 594.783C709.243 599.71 716.307 602.993 723.75 603.794C723.957 603.819 724.161 603.806 724.348 603.757C724.441 603.791 724.539 603.816 724.64 603.833C725.11 603.904 725.569 603.79 725.907 603.538C726.173 603.346 726.369 603.072 726.434 602.751C727.682 596.758 724.527 589.946 718.212 584.972L718.199 584.977Z" fill="#ACD27A"/>
</svg>
