<svg width="202" height="59" viewBox="0 0 202 59" fill="none" xmlns="http://www.w3.org/2000/svg">
<path fill-rule="evenodd" clip-rule="evenodd" d="M177.705 8.89705C177.539 9.86055 177.474 12.2265 178.856 11.9244C180.701 11.5281 180.461 11.3371 181.47 10.4535C182.143 9.8634 183.799 11.474 181.496 14.0423C180.242 15.4477 179.962 15.881 180.635 16.6905C181.336 17.5343 183.158 17.8564 183.158 20.4561C183.158 22.7366 186.085 21.0833 186.795 20.1939C187.488 19.3245 187.998 15.3536 189.974 18.2441C191.373 20.2994 188.982 24.7006 191.861 25.1311C194.224 25.4874 194.64 28.1812 194.706 28.8682L194.717 29.0278C200.763 23.2241 196.735 15.7156 196.584 14.8006C196.325 13.1729 197.203 13.7687 198.28 14.7664C193.825 6.4085 185.031 0.71875 174.903 0.71875C173.155 0.71875 171.445 0.892635 169.792 1.2176C175.017 1.32877 178.663 3.4154 177.705 8.89705ZM191.59 40.8207C189.965 41.4706 189.258 40.4273 188.052 41.6074C186.724 42.9016 190.966 45.4443 183.161 43.6627C179.674 42.8674 180.151 46.6586 176.234 44.6689C175.151 42.0892 175.119 40.5698 176.046 38.9535C177.126 37.0607 177.511 37.6993 176.855 35.6155C176.596 34.8031 176.847 34.4411 177.277 33.3094C177.705 32.1777 177.157 30.6099 175.564 30.6983C173.443 30.8151 173.688 31.7786 172.38 32.6566C171.502 33.2438 170.022 30.2564 173.127 27.5712C174.826 26.106 175.225 25.6328 174.663 24.5068C174.082 23.3324 173.007 23.7543 172.571 22.4059C172.237 21.3712 172.756 19.4214 171.265 18.9567C169.575 18.4265 168.227 20.8467 167.252 21.7931C166.114 22.8934 164.871 24.866 164.259 23.2953C163.172 20.4989 168.164 16.3342 165.088 15.2282C162.192 14.1877 161.248 11.1462 161.248 11.1462C153.301 17.0411 157.064 22.2263 156.402 23.1442C155.741 24.0621 154.467 22.0268 153.395 23.0017C152.568 23.7543 151.83 28.5746 156.924 31.6332C158.854 32.7906 159.487 33.087 159.025 33.7883C158.654 34.3441 157.109 33.8767 157.132 35.148C157.183 37.7021 161.283 36.9353 162.027 40.1337C162.725 43.1239 175.436 44.9112 175.436 44.9112C175.421 44.897 175.493 44.9169 175.595 44.9483L176.2 45.2847C176.388 46.0743 177.143 47.8787 178.913 48.788C181.841 50.2931 178.734 49.5691 179.133 50.6323C179.335 51.1711 181.41 52.5736 185.099 51.7241C190.199 49.5947 194.489 45.9118 197.388 41.2682C194.23 38.8025 193.993 39.3127 191.59 40.8207Z" fill="#FFFFFE"/>
<path fill-rule="evenodd" clip-rule="evenodd" d="M175.593 44.9487C175.49 44.9173 175.419 44.8974 175.433 44.9116C175.433 44.9116 162.725 43.1243 162.024 40.1341C161.277 36.9357 157.181 37.7025 157.13 35.1484C157.107 33.8771 158.652 34.3446 159.022 33.7887C159.484 33.0875 158.851 32.791 156.921 31.6337C151.83 28.575 152.566 23.7547 153.395 23.0021C154.467 22.0272 155.741 24.0625 156.403 23.1446C157.064 22.2268 153.301 17.0416 161.249 11.1466C161.249 11.1466 162.192 14.1881 165.086 15.2286C168.161 16.3346 163.17 20.4993 164.256 23.2957C164.869 24.8664 166.112 22.8966 167.249 21.7935C168.224 20.8471 169.572 18.4298 171.263 18.9571C172.754 19.4218 172.235 21.3744 172.568 22.4092C173.002 23.7575 174.076 23.3328 174.658 24.5072C175.219 25.636 174.82 26.1092 173.121 27.5716C170.017 30.2568 171.497 33.2442 172.374 32.657C173.683 31.779 173.438 30.8155 175.559 30.6987C177.152 30.6103 177.699 32.1781 177.275 33.3098C176.847 34.4415 176.596 34.8035 176.853 35.6159C177.508 37.6968 177.124 37.0612 176.043 38.9539C175.117 40.5674 175.151 42.0896 176.231 44.6693C180.145 46.659 179.672 42.8678 183.158 43.6631C190.963 45.4447 186.721 42.902 188.05 41.6078C189.256 40.4305 189.96 41.471 191.587 40.8211C193.996 39.3103 194.224 38.8 197.397 41.2829C199.945 37.2122 201.428 32.3976 201.428 27.2409C201.428 22.7541 200.307 18.5296 198.338 14.821C197.231 13.7919 196.322 13.1505 196.584 14.8067C196.736 15.7189 200.763 23.2302 194.717 29.0339L194.706 28.8743C194.64 28.1873 194.224 25.4935 191.861 25.1372C188.982 24.7068 191.374 20.3083 189.974 18.2502C187.998 15.3597 187.488 19.3306 186.796 20.2C186.086 21.0894 183.158 22.7427 183.158 20.4622C183.158 17.8654 181.334 17.5404 180.635 16.6966C179.963 15.8842 180.239 15.4538 181.496 14.0485C183.797 11.4801 182.143 9.86666 181.471 10.4596C180.462 11.3404 180.701 11.5314 178.857 11.9305C177.474 12.2326 177.54 9.86666 177.705 8.90317C178.66 3.41581 175.011 1.33203 169.783 1.22656C157.591 3.6182 148.393 14.3535 148.393 27.2438C148.393 41.89 160.265 53.7627 174.909 53.7627C178.523 53.7627 181.97 53.0358 185.111 51.7245C181.414 52.5826 179.333 51.1772 179.127 50.6385C178.728 49.578 181.833 50.3021 178.908 48.7941C177.141 47.8848 176.385 46.0804 176.194 45.2908L175.59 44.9544" fill="#4AA241"/>
<path fill-rule="evenodd" clip-rule="evenodd" d="M177.086 45.7638C177.086 45.7638 159.655 38.9966 159.051 21.8447C159.051 21.8418 160.732 34.8832 177.086 45.7638ZM176.955 0.764648C177.454 0.818809 181.205 1.31766 185.17 3.84897C186.644 5.22865 188.731 8.61514 185.51 15.5563C185.51 15.5563 189.637 9.98626 188.594 6.60548C192.054 10.0775 194.965 15.5819 195.073 24.3047C195.076 24.3047 198.922 2.45219 176.955 0.764648ZM194.378 44.1077C193.049 44.9144 190.891 46.8157 187.365 45.7068C187.365 45.7068 188.745 46.7673 190.963 46.7102C188.132 48.1697 185.065 48.5204 180.208 47.306C180.208 47.306 190.039 53.1041 196.909 42.0068C196.912 42.0039 195.207 43.606 194.378 44.1077Z" fill="#4AA241"/>
<path fill-rule="evenodd" clip-rule="evenodd" d="M8.73671 20.6877C8.73671 22.5976 9.09873 23.1278 10.4585 23.1278V23.601H4.82572V23.1278C5.9631 23.1278 6.63013 22.7943 6.63013 20.6022V8.48154H4.32687C2.19178 8.48154 1.22259 9.08872 1.08291 10.7535H0.612563V7.12182H1.08291C1.3024 7.31566 1.55611 7.45249 1.94378 7.56366C2.30296 7.65203 2.80181 7.70334 3.47169 7.70334H11.7897C13.1751 7.70334 13.8136 7.53801 14.3124 7.12182H14.8113V10.7535H14.5091C14.2013 9.42508 13.6768 8.48154 11.154 8.48154H8.73956V20.6877M25.8858 21.2407C25.8858 22.7401 26.1623 23.1278 27.465 23.1278V23.601H22.3625V23.1278C23.6965 23.1278 24.0015 22.8199 24.0015 21.5457V16.6941C24.0015 15.3885 23.2262 14.5561 22.0346 14.5561C20.9229 14.5561 20.1191 15.0835 19.1755 16.4147V21.7966C19.1755 22.8171 19.5889 23.125 20.8089 23.125V23.5982H15.541V23.125C17.0119 23.0964 17.2913 22.8171 17.2913 21.2379V8.45304C17.2913 7.17883 16.9264 6.98214 15.541 6.98214V6.5118L18.7023 6.17828H19.1727V15.4712C20.4212 14.0288 21.3363 13.5043 22.6105 13.5043C24.2495 13.5043 25.8858 14.5846 25.8858 16.9135V21.2407ZM35.8286 17.1387C35.9113 14.9752 34.4404 14.0858 33.1918 14.0858C31.5556 14.0858 30.5864 15.3058 30.4724 17.1387H35.8286ZM30.4724 17.6091C30.421 22.0189 33.0521 23.1278 34.3833 23.1278C35.7459 23.1278 36.4358 22.6575 37.8525 21.0754V21.7994C36.6581 23.3245 35.5179 23.9032 33.8018 23.9032C30.7232 23.9032 28.5026 21.7709 28.5026 18.8006C28.5026 15.836 30.6662 13.5071 33.4398 13.5071C35.7146 13.5071 37.824 15.3372 37.6872 17.6119L30.4724 17.6091ZM63.1941 29.5616H62.4473L44.6853 7.66628H44.597V25.3399C44.597 27.8883 45.6089 28.8119 47.8951 28.8119V29.5587H40.2441V28.809C42.3507 28.809 43.3627 28.1505 43.3627 24.5018V9.77856C43.3627 6.96504 42.6158 5.38297 39.6255 5.11787V4.37101H46.0878L61.8315 23.9773H61.9199V9.24835C61.9199 5.95023 61.0391 5.11501 58.8441 5.11501V4.36816H66.4523V5.11501C63.9923 5.11501 63.197 6.12697 63.197 9.07162L63.1941 29.5616ZM86.4377 13.9547H91.8453V15.0977H86.4377V25.1232C86.4377 27.2782 87.5352 28.3757 89.2512 28.3757C90.3972 28.3757 91.2324 27.9339 92.1531 26.882L92.6377 27.4521C91.2752 29.1653 89.6931 30.0433 87.9343 30.0433C85.2975 30.0433 83.4503 28.199 83.4503 25.5166V15.0949H80.5057V14.3509C82.6151 13.2962 84.371 11.4034 85.6937 8.721H86.4406L86.4377 13.9547ZM109.567 26.6169C109.567 28.333 110.14 28.8147 112.247 28.8147V29.5616L106.577 29.8694V27.0131H106.489C104.949 29.0342 103.148 30.0462 101.036 30.0462C97.9569 30.0462 95.9358 27.7172 95.9358 24.8154V16.8565C95.9358 15.3628 95.4085 14.7899 93.1651 14.7899V14.043L98.1792 13.5584H98.9261V24.6814C98.9261 26.8792 100.331 28.199 102.444 28.199C103.937 28.199 105.3 27.3638 106.577 25.6477V17.2499C106.577 15.0949 106.224 14.8326 103.544 14.787V14.0402L108.82 13.5556H109.567V26.6169ZM119.231 26.6169C119.231 28.333 119.758 28.8147 121.822 28.8147V29.5616H113.601V28.8119C115.975 28.8119 116.24 28.1961 116.24 25.8244V17.3383C116.24 15.0521 115.668 14.787 113.031 14.787V14.0402L118.484 13.5556H119.231V16.9421C122.133 14.4393 123.495 13.5584 124.55 13.5584C125.431 13.5584 126.617 14.0858 127.409 14.7899L126.22 17.5578C124.946 16.8537 123.581 16.1952 122.526 16.1952C121.514 16.1952 120.633 16.7226 119.228 18.0851L119.231 26.6169ZM139.259 19.3194C139.39 15.8902 137.061 14.482 135.08 14.482C132.489 14.482 130.947 16.4176 130.773 19.3194H139.259ZM130.773 20.0663C130.684 27.0559 134.86 28.8147 136.973 28.8147C139.125 28.8147 140.222 28.065 142.466 25.5593V26.7053C140.576 29.1226 138.771 30.0433 136.046 30.0433C131.166 30.0433 127.648 26.6597 127.648 21.9562C127.648 17.2528 131.078 13.5584 135.476 13.5584C139.082 13.5584 142.42 16.4603 142.204 20.0663H130.773ZM16.2822 35.7416C15.3614 32.1869 13.4174 30.6391 10.162 30.6391C5.61818 30.6391 3.18093 34.2935 3.18093 39.1338C3.18093 44.7922 6.11132 48.5122 10.3558 48.5122C13.3176 48.5122 15.5239 47.1297 16.9407 44.3646L17.4338 44.8264C16.1853 47.8223 13.1893 49.698 9.56908 49.698C5.02811 49.698 0.287598 46.6023 0.287598 40.3196C0.287598 34.3306 4.40383 29.9207 10.0309 29.9207C12.3997 29.9207 14.1785 30.7103 15.2959 30.7103C15.7919 30.7103 16.1197 30.5108 16.3164 30.1174H16.8437V35.7445L16.2822 35.7416ZM24.9935 37.9137C22.5278 37.9137 21.0426 40.0859 21.0426 43.441C21.0426 46.4398 22.294 48.9398 24.9935 48.9398C27.7558 48.9398 28.9444 46.2745 28.9444 43.441C28.9444 40.5106 27.6959 37.9137 24.9935 37.9137ZM24.9935 49.5954C21.3391 49.5954 18.6083 46.9615 18.6083 43.4382C18.6083 39.8863 21.3391 37.2524 24.9935 37.2524C28.648 37.2524 31.3788 39.8863 31.3788 43.4382C31.3788 46.9643 28.648 49.5954 24.9935 49.5954ZM44.902 46.7021C44.902 48.2129 45.2326 48.6747 46.8774 48.6747V49.2362H40.6575V48.6747C42.2367 48.6747 42.6643 48.3126 42.6643 47.2266V41.1377C42.6643 39.2649 41.3131 38.4753 40.0645 38.4753C38.9129 38.4753 37.8924 39.1994 36.7408 40.7444V46.4398C36.7408 48.2157 36.9688 48.6775 38.7162 48.6775V49.2391H32.5618V48.6775C34.1068 48.6775 34.5031 48.5464 34.5031 46.4398V39.8892C34.5031 38.4753 34.141 38.1788 32.5618 38.1788V37.6201L36.1792 37.2581H36.7408V39.5927C38.1233 38.0164 39.4716 37.2581 40.9511 37.2581C42.8923 37.2581 44.902 38.6406 44.902 41.4371V46.7021ZM54.5369 40.8413C54.306 38.9001 53.0233 37.9137 51.6407 37.9137C50.4891 37.9137 49.6966 38.5409 49.6966 39.493C49.6966 42.4547 55.8197 41.6651 55.8197 46.0094C55.8197 47.9535 54.1435 49.5983 52.1339 49.5983C50.8483 49.5983 49.7308 48.7402 49.1721 48.7402C48.7445 48.7402 48.4481 49.1051 48.4139 49.5298H47.8552V45.5476H48.4139C48.9099 47.9848 50.72 48.9398 52.1681 48.9398C53.3226 48.9398 54.2091 48.0818 54.2091 46.9301C54.2091 43.6748 48.0205 44.5613 48.0205 40.6132C48.0205 38.8031 49.6339 37.2553 51.5752 37.2553C52.7952 37.2553 53.1572 37.8168 53.9468 37.8168C54.2433 37.8168 54.4713 37.6515 54.6367 37.2553H55.1954V40.8413H54.5369ZM65.7511 41.5653C65.848 38.997 64.1035 37.9479 62.624 37.9479C60.6799 37.9479 59.5311 39.396 59.3971 41.5653H65.7511ZM59.3971 42.1269C59.3316 47.3577 62.4587 48.6747 64.0379 48.6747C65.6513 48.6747 66.4751 48.116 68.1541 46.2403V47.0926C66.7374 48.9027 65.3891 49.5954 63.3481 49.5954C59.6965 49.5954 57.0625 47.0612 57.0625 43.5379C57.0625 40.0175 59.6281 37.2524 62.9205 37.2524C65.62 37.2524 68.1228 39.4274 67.9574 42.1241L59.3971 42.1269ZM73.7555 47.0299C73.7555 48.3126 74.1489 48.6747 75.6996 48.6747V49.2362H69.5424V48.6747C71.3183 48.6747 71.5178 48.2129 71.5178 46.437V40.0859C71.5178 38.3755 71.0902 38.176 69.1148 38.176V37.6173L73.1939 37.2553H73.7555V39.7894C75.9276 37.9137 76.9482 37.2553 77.7378 37.2553C78.3962 37.2553 79.2828 37.6515 79.8785 38.1788L78.9892 40.2484C78.0342 39.7239 77.0137 39.2307 76.2241 39.2307C75.4659 39.2307 74.8102 39.6269 73.7583 40.6446L73.7555 47.0299ZM87.6435 46.4028L89.9154 40.5106C90.477 38.997 90.477 38.31 88.7638 38.176V37.6173H93.0425V38.176C91.6913 38.3071 91.3635 38.6036 90.802 39.8521L87.0477 49.4956H86.4919L82.769 40.3453C81.9794 38.4383 81.683 38.2387 80.3004 38.176V37.6173H85.9275V38.176C84.8072 38.2758 84.5136 38.9 85.0381 40.1828L87.6435 46.4028ZM116.275 46.7021C116.275 48.2129 116.605 48.6747 118.25 48.6747V49.2362H112.03V48.6747C113.609 48.6747 114.037 48.3126 114.037 47.2266V41.1377C114.037 39.2649 112.686 38.4753 111.434 38.4753C110.283 38.4753 109.265 39.1994 108.111 40.7444V46.4398C108.111 48.2157 108.342 48.6775 110.086 48.6775V49.2391H103.929V48.6775C105.477 48.6775 105.873 48.5464 105.873 46.4398V39.8892C105.873 38.4753 105.508 38.1788 103.929 38.1788V37.6201L107.549 37.2581H108.108V39.5927C109.49 38.0164 110.842 37.2581 112.321 37.2581C114.265 37.2581 116.272 38.6406 116.272 41.4371L116.275 46.7021ZM129.231 41.3658H128.669C128.173 39.2621 126.694 37.9109 124.752 37.9109C122.449 37.9109 120.836 39.8863 120.836 42.7483C120.836 45.941 122.842 48.6091 125.214 48.6091C126.631 48.6091 128.341 47.8509 129.558 46.1719V47.0299C128.31 48.7402 126.531 49.5983 124.424 49.5983C120.967 49.5983 118.564 47.1924 118.564 43.7061C118.564 40.1201 121.263 37.2553 124.587 37.2553C126.334 37.2553 127.286 37.9137 127.879 37.9137C128.173 37.9137 128.472 37.6828 128.669 37.2553H129.231V41.3658ZM137.588 46.5339L139.632 40.3795C140.094 38.997 139.994 38.2416 138.712 38.176V37.6173H142.825V38.176C141.574 38.176 140.818 38.9656 140.16 40.9068L135.519 54.6324C134.595 57.3319 133.082 58.8769 131.665 58.8769C131.172 58.8769 130.81 58.7458 130.217 58.3837L130.975 56.3769C131.434 56.5736 131.696 56.6392 132.093 56.6392C133.506 56.6392 134.333 55.8154 135.054 53.7744L136.571 49.5612L132.389 39.9177C131.796 38.5665 131.368 38.2074 130.017 38.1731V37.6144H135.613V38.1731C134.724 38.3043 134.362 38.9628 134.792 39.9491L137.588 46.5339ZM75.3775 26.3974C74.7617 27.7144 73.0913 28.3757 72.1677 28.3757C70.8935 28.3757 69.7932 27.0987 69.7932 25.5166C69.7932 22.3496 72.43 22.3981 75.3775 21.121V26.3974ZM78.362 26.1722L78.3677 19.2767C78.3677 15.0578 75.3347 13.5613 72.7378 13.5613C69.9243 13.5613 67.6382 15.4541 66.9797 18.3559L67.7721 18.5754C68.4335 16.3349 70.1438 15.2374 71.9055 15.2374C74.1033 15.2374 75.3775 16.8195 75.3775 19.0173V20.1575C72.8291 21.6569 66.7602 21.4773 66.7602 25.9185C66.7602 28.2047 68.7812 30.049 71.2014 30.049C72.8319 30.049 74.0235 29.4076 75.5628 27.7372L75.5713 27.7315V29.6043H81.033V28.8461C78.8096 28.8432 78.362 28.2189 78.362 26.1722ZM99.3109 46.8503C98.8577 47.8281 97.6177 48.3183 96.9307 48.3183C95.9872 48.3183 95.1719 47.3748 95.1719 46.1975C95.1719 43.8515 97.1274 43.8857 99.3109 42.9393V46.8503ZM101.523 46.6821L101.529 41.571C101.529 38.444 99.2796 37.3351 97.3554 37.3351C95.2717 37.3351 93.5756 38.7376 93.0853 40.8897L93.6753 41.0522C94.1628 39.3903 95.4341 38.5751 96.7368 38.5751C98.3674 38.5751 99.3109 39.7495 99.3109 41.38V42.2267C97.421 43.3355 92.9228 43.2073 92.9228 46.4997C92.9228 48.1958 94.4222 49.5612 96.2152 49.5612C97.421 49.5612 98.3075 49.0823 99.4506 47.8451L99.4563 47.8423V49.2305H103.504V48.669C101.854 48.6633 101.523 48.2015 101.523 46.6821Z" fill="black"/>
</svg>
