<svg width="248" height="57" viewBox="0 0 248 57" fill="none" xmlns="http://www.w3.org/2000/svg">
<mask id="mask0_1565_20072" style="mask-type:luminance" maskUnits="userSpaceOnUse" x="0" y="0" width="248" height="57">
<path d="M247.288 0.713867H0.938721V56.8814H247.288V0.713867Z" fill="white"/>
</mask>
<g mask="url(#mask0_1565_20072)">
<mask id="mask1_1565_20072" style="mask-type:luminance" maskUnits="userSpaceOnUse" x="0" y="0" width="248" height="57">
<path d="M247.288 0.714844H0.938721V56.8772H247.288V0.714844Z" fill="white"/>
</mask>
<g mask="url(#mask1_1565_20072)">
<path d="M206.022 17.1875C204.892 17.1875 204.155 17.9567 204.155 19.0809C204.155 20.1341 204.892 20.9388 206.022 20.9388C207.151 20.9388 207.889 20.1341 207.889 19.0809C207.889 17.9567 207.151 17.1875 206.022 17.1875Z" fill="url(#paint0_linear_1565_20072)"/>
<path d="M80.0164 20.417H76.9492V35.0907C76.9492 39.694 79.6597 42.463 84.8549 42.463V39.5521C81.5024 39.5521 80.0164 37.8953 80.0164 35.0907V27.6119H84.8549V24.5588H80.0164V20.417Z" fill="url(#paint1_linear_1565_20072)"/>
<path d="M87.2336 33.3406V42.1211H90.2652V33.3406C90.2652 29.4118 92.5596 27.2699 96.7919 27.2699V24.2168C90.7644 24.205 87.2336 27.613 87.2336 33.3406Z" fill="url(#paint2_linear_1565_20072)"/>
<path d="M106.647 24.2051C101.428 24.2051 97.7546 28.0629 97.7546 33.3407C97.7546 38.5712 101.428 42.4762 106.576 42.4762C110.772 42.4762 113.911 40.0149 115.076 36.2991H111.795C110.951 38.3699 108.977 39.7427 106.576 39.7427C103.544 39.7427 101.286 37.6718 100.929 34.2637H115.361C115.397 33.9087 115.433 33.4945 115.433 33.1394C115.433 28.0747 111.902 24.2051 106.647 24.2051ZM112.318 32.0626H100.988C101.428 28.9386 103.604 26.915 106.659 26.915C109.738 26.915 111.902 28.9977 112.318 32.0626Z" fill="url(#paint3_linear_1565_20072)"/>
<path d="M126.43 24.2051C121.211 24.2051 117.538 28.0628 117.538 33.3406C117.538 38.5711 121.211 42.4762 126.358 42.4762C130.555 42.4762 133.694 40.0148 134.859 36.2991H131.59C130.746 38.3699 128.773 39.7426 126.371 39.7426C123.339 39.7426 121.08 37.6717 120.724 34.2637H135.156C135.192 33.9086 135.227 33.4945 135.227 33.1394C135.216 28.0746 131.685 24.2051 126.43 24.2051ZM132.101 32.0626H120.771C121.211 28.9385 123.387 26.9149 126.442 26.9149C129.522 26.9149 131.685 28.9977 132.101 32.0626Z" fill="url(#paint4_linear_1565_20072)"/>
<path d="M140.778 32.0862V34.0625V34.2045H149.409V34.0625V32.0862V31.9561H140.778V32.0862Z" fill="url(#paint5_linear_1565_20072)"/>
<path d="M162.31 24.2051C157.685 24.2051 154.226 28.0984 154.226 33.3407V42.1212H157.257V33.3407C157.257 29.7906 159.374 27.27 162.298 27.27C165.294 27.27 167.339 29.9089 167.339 33.3407V42.1212H170.406V33.3407C170.418 28.1102 167.006 24.2051 162.31 24.2051Z" fill="url(#paint6_linear_1565_20072)"/>
<path d="M181.902 24.2051C176.825 24.2051 173.08 27.9918 173.08 33.3407C173.08 38.5001 176.754 42.4762 181.474 42.4762C184.018 42.4762 186.241 41.2101 187.68 39.1747V42.1212H190.746V33.3407C190.746 28.1457 187.227 24.2051 181.902 24.2051ZM181.902 39.3876C178.584 39.3876 176.183 36.7133 176.183 33.3525C176.183 30.1574 178.3 27.2818 181.902 27.2818C185.682 27.2818 187.692 30.1574 187.692 33.3525C187.68 36.7842 185.218 39.3876 181.902 39.3876Z" fill="url(#paint7_linear_1565_20072)"/>
<path d="M196.784 20.417H193.718V35.0907C193.718 39.694 196.427 42.463 201.623 42.463V39.5521C198.27 39.5521 196.784 37.8953 196.784 35.0907V27.6119H201.623V24.5588H196.784V20.417Z" fill="url(#paint8_linear_1565_20072)"/>
<path d="M207.567 24.5596H204.465V42.1206H207.567V24.5596Z" fill="url(#paint9_linear_1565_20072)"/>
<path d="M219.599 24.2051C214.344 24.2051 210.741 28.0629 210.741 33.3407C210.741 38.5712 214.344 42.4762 219.599 42.4762C224.817 42.4762 228.419 38.583 228.419 33.3407C228.419 28.0747 224.829 24.2051 219.599 24.2051ZM219.599 39.3876C216.175 39.3876 213.844 36.8553 213.844 33.3525C213.844 29.8025 216.175 27.2818 219.599 27.2818C222.987 27.2818 225.317 29.8143 225.317 33.3525C225.317 36.8553 222.987 39.3876 219.599 39.3876Z" fill="url(#paint10_linear_1565_20072)"/>
<path d="M239.165 24.2051C234.541 24.2051 231.082 28.0984 231.082 33.3407V42.1212H234.112V33.3407C234.112 29.7906 236.229 27.27 239.153 27.27C242.149 27.27 244.194 29.9089 244.194 33.3407V42.1212H247.261V33.3407C247.285 28.1102 243.861 24.2051 239.165 24.2051Z" fill="url(#paint11_linear_1565_20072)"/>
<path d="M29.1596 0.714844C13.6453 0.714844 1.02002 13.2821 1.02002 28.725C1.02002 42.2982 10.7684 53.6467 23.6672 56.191C25.0938 56.4986 26.5561 56.6879 28.054 56.7472V41.9314L20.5881 35.5412C19.851 36.062 18.9595 36.3815 17.9846 36.3815C15.4999 36.3815 13.4789 34.3697 13.4789 31.8965C13.4789 29.4232 15.4999 27.4115 17.9846 27.4115C20.4692 27.4115 22.4902 29.4232 22.4902 31.8965C22.4902 32.6183 22.3001 33.281 22.0028 33.8846L28.054 39.0558V24.9737L25.3553 22.6663C24.5469 23.4118 23.4769 23.8851 22.2881 23.8851C19.8035 23.8851 17.7825 21.8734 17.7825 19.4001C17.7825 16.9269 19.8035 14.9152 22.2881 14.9152C24.7728 14.9152 26.7938 16.9269 26.7938 19.4001C26.7938 19.8972 26.6986 20.3587 26.5442 20.8084L29.1477 23.0449L31.7869 20.832C31.6323 20.3824 31.5373 19.909 31.5373 19.412C31.5373 16.9387 33.5582 14.9271 36.0429 14.9271C38.5275 14.9271 40.5485 16.9387 40.5485 19.412C40.5485 21.8852 38.5275 23.8969 36.0429 23.8969C34.8541 23.8969 33.7841 23.4354 32.9875 22.6899L30.2533 25.033V36.204L36.6611 30.7131C36.3995 30.1451 36.2569 29.5298 36.2569 28.867C36.2569 26.3938 38.2779 24.3821 40.7625 24.3821C43.2472 24.3821 45.2682 26.3938 45.2682 28.867C45.2682 31.3403 43.2472 33.352 40.7625 33.352C39.7282 33.352 38.7891 32.9971 38.0282 32.4172L30.2533 39.0558V56.7472C31.7512 56.6879 33.2134 56.4986 34.64 56.191C47.5389 53.6467 57.2872 42.2982 57.2872 28.725C57.2872 13.2821 44.6738 0.714844 29.1596 0.714844ZM34.64 53.9543V41.0676L38.8129 37.4937C39.4429 37.6357 40.0967 37.7068 40.7625 37.7068C45.6724 37.7068 49.655 33.7307 49.655 28.8552C49.655 25.4235 47.6815 22.4296 44.7927 20.9622C44.8877 20.4533 44.9354 19.9327 44.9354 19.3883C44.9354 14.5011 40.9409 10.5368 36.0429 10.5368C33.2729 10.5368 30.8002 11.803 29.1596 13.7792C27.5309 11.803 25.0462 10.5368 22.2763 10.5368C17.3664 10.5368 13.3839 14.5129 13.3839 19.3883C13.3839 20.9622 13.7999 22.4532 14.5251 23.7313C11.3272 25.0803 9.08027 28.2281 9.08027 31.8965C9.08027 36.7838 13.0748 40.7481 17.9727 40.7481C18.5672 40.7481 19.1496 40.6888 19.7321 40.5705L23.6553 43.9313V53.9543C11.9929 51.4456 3.21935 41.0912 3.21935 28.725C3.21935 14.4893 14.858 2.90406 29.1596 2.90406C43.4612 2.90406 55.0998 14.4893 55.0998 28.725C55.0998 41.0912 46.3144 51.4456 34.64 53.9543Z" fill="url(#paint12_linear_1565_20072)"/>
<path d="M19.9348 19.4248C19.9348 20.7028 20.9692 21.7442 22.253 21.7442C23.537 21.7442 24.5831 20.7146 24.5831 19.4366C24.5831 18.1585 23.5489 17.1172 22.2649 17.1172C20.9692 17.129 19.9348 18.1585 19.9348 19.4248Z" fill="url(#paint13_linear_1565_20072)"/>
<path d="M36.0438 21.7323C37.3241 21.7323 38.362 20.6992 38.362 19.4248C38.362 18.1503 37.3241 17.1172 36.0438 17.1172C34.7634 17.1172 33.7256 18.1503 33.7256 19.4248C33.7256 20.6992 34.7634 21.7323 36.0438 21.7323Z" fill="url(#paint14_linear_1565_20072)"/>
<path d="M17.9478 34.2753C19.2282 34.2753 20.266 33.2422 20.266 31.9677C20.266 30.6933 19.2282 29.6602 17.9478 29.6602C16.6676 29.6602 15.6296 30.6933 15.6296 31.9677C15.6296 33.2422 16.6676 34.2753 17.9478 34.2753Z" fill="url(#paint15_linear_1565_20072)"/>
<path d="M40.7744 31.2225C42.0546 31.2225 43.0926 30.1893 43.0926 28.9149C43.0926 27.6406 42.0546 26.6074 40.7744 26.6074C39.494 26.6074 38.4561 27.6406 38.4561 28.9149C38.4561 30.1893 39.494 31.2225 40.7744 31.2225Z" fill="url(#paint16_linear_1565_20072)"/>
</g>
</g>
<defs>
<linearGradient id="paint0_linear_1565_20072" x1="206.02" y1="42.1128" x2="206.02" y2="17.759" gradientUnits="userSpaceOnUse">
<stop stop-color="#32C070"/>
<stop offset="1" stop-color="#25A3C1"/>
</linearGradient>
<linearGradient id="paint1_linear_1565_20072" x1="80.9009" y1="42.4654" x2="80.9009" y2="20.417" gradientUnits="userSpaceOnUse">
<stop stop-color="#32C070"/>
<stop offset="1" stop-color="#25A3C1"/>
</linearGradient>
<linearGradient id="paint2_linear_1565_20072" x1="92.0193" y1="42.1223" x2="92.0193" y2="24.2109" gradientUnits="userSpaceOnUse">
<stop stop-color="#32C070"/>
<stop offset="1" stop-color="#25A3C1"/>
</linearGradient>
<linearGradient id="paint3_linear_1565_20072" x1="106.591" y1="42.4727" x2="106.591" y2="24.211" gradientUnits="userSpaceOnUse">
<stop stop-color="#32C070"/>
<stop offset="1" stop-color="#25A3C1"/>
</linearGradient>
<linearGradient id="paint4_linear_1565_20072" x1="126.38" y1="42.4727" x2="126.38" y2="24.211" gradientUnits="userSpaceOnUse">
<stop stop-color="#32C070"/>
<stop offset="1" stop-color="#25A3C1"/>
</linearGradient>
<linearGradient id="paint5_linear_1565_20072" x1="145.092" y1="42.501" x2="145.092" y2="24.4441" gradientUnits="userSpaceOnUse">
<stop stop-color="#32C070"/>
<stop offset="1" stop-color="#25A3C1"/>
</linearGradient>
<linearGradient id="paint6_linear_1565_20072" x1="162.323" y1="42.1224" x2="162.323" y2="24.211" gradientUnits="userSpaceOnUse">
<stop stop-color="#32C070"/>
<stop offset="1" stop-color="#25A3C1"/>
</linearGradient>
<linearGradient id="paint7_linear_1565_20072" x1="181.914" y1="42.4727" x2="181.914" y2="24.211" gradientUnits="userSpaceOnUse">
<stop stop-color="#32C070"/>
<stop offset="1" stop-color="#25A3C1"/>
</linearGradient>
<linearGradient id="paint8_linear_1565_20072" x1="197.672" y1="42.4654" x2="197.672" y2="20.417" gradientUnits="userSpaceOnUse">
<stop stop-color="#32C070"/>
<stop offset="1" stop-color="#25A3C1"/>
</linearGradient>
<linearGradient id="paint9_linear_1565_20072" x1="206.021" y1="42.1218" x2="206.021" y2="24.562" gradientUnits="userSpaceOnUse">
<stop stop-color="#32C070"/>
<stop offset="1" stop-color="#25A3C1"/>
</linearGradient>
<linearGradient id="paint10_linear_1565_20072" x1="219.586" y1="42.4727" x2="219.586" y2="24.211" gradientUnits="userSpaceOnUse">
<stop stop-color="#32C070"/>
<stop offset="1" stop-color="#25A3C1"/>
</linearGradient>
<linearGradient id="paint11_linear_1565_20072" x1="239.183" y1="42.1224" x2="239.183" y2="24.211" gradientUnits="userSpaceOnUse">
<stop stop-color="#32C070"/>
<stop offset="1" stop-color="#25A3C1"/>
</linearGradient>
<linearGradient id="paint12_linear_1565_20072" x1="29.1575" y1="56.7466" x2="29.1575" y2="0.714844" gradientUnits="userSpaceOnUse">
<stop stop-color="#32C070"/>
<stop offset="1" stop-color="#25A3C1"/>
</linearGradient>
<linearGradient id="paint13_linear_1565_20072" x1="22.253" y1="56.9351" x2="22.253" y2="0.832939" gradientUnits="userSpaceOnUse">
<stop stop-color="#32C070"/>
<stop offset="1" stop-color="#25A3C1"/>
</linearGradient>
<linearGradient id="paint14_linear_1565_20072" x1="36.0438" y1="56.8747" x2="36.0438" y2="0.772587" gradientUnits="userSpaceOnUse">
<stop stop-color="#32C070"/>
<stop offset="1" stop-color="#25A3C1"/>
</linearGradient>
<linearGradient id="paint15_linear_1565_20072" x1="17.9419" y1="57.0385" x2="17.9419" y2="0.831107" gradientUnits="userSpaceOnUse">
<stop stop-color="#32C070"/>
<stop offset="1" stop-color="#25A3C1"/>
</linearGradient>
<linearGradient id="paint16_linear_1565_20072" x1="40.7732" y1="56.8755" x2="40.7732" y2="1.00056" gradientUnits="userSpaceOnUse">
<stop stop-color="#32C070"/>
<stop offset="1" stop-color="#25A3C1"/>
</linearGradient>
</defs>
</svg>
